<svg width="664" height="665" viewBox="0 0 664 665" fill="none" xmlns="http://www.w3.org/2000/svg">
<path opacity="0.2" d="M663.459 504.085V333.877H663.999V331.998H663.459V161.791C663.449 120.049 647.205 79.9474 618.163 49.9658V46.8775H663.459V44.9858H619.475L661.709 2.52078L660.422 1.23396L618.201 43.699V2.1476H616.323V44.9858H613.131C583.581 16.7383 544.283 0.962883 503.404 0.937988H160.042C119.18 0.976116 79.9032 16.7505 50.3661 44.9858H47.162V2.1476H45.2961V43.6604L3.0755 1.19535L1.78868 2.48217L44.0092 44.9472H2.67659V46.826H45.2961V49.9658C16.25 79.9451 0.00579511 120.048 0 161.791V504.085C0.00579511 545.827 16.25 585.93 45.2961 615.909V619.049H2.67659V620.928H43.9706L1.75008 663.393L3.0369 664.68L45.2575 622.215V663.728H47.1234V620.889H50.3275C79.8742 649.134 119.167 664.909 160.042 664.937H503.404C544.27 664.902 583.552 649.128 613.093 620.889H616.284V663.728H618.163V622.215L660.383 664.68L661.67 663.393L619.437 620.928H663.999V619.049H618.163V615.909C647.198 585.923 663.441 545.825 663.459 504.085ZM661.58 504.085C661.577 544.662 646.041 583.698 618.163 613.181V451.904H660.911V450.038H618.163V333.877H661.58V504.085ZM449.525 450.038L448.238 448.751C450.374 446.581 452.446 444.35 454.453 442.06V450.038H449.525ZM454.453 451.917V454.993L451.391 451.917H454.453ZM210.073 450.038V443.282C211.746 445.148 213.471 446.963 215.221 448.751L213.934 450.038H210.073ZM212.068 451.917L210.073 453.899V451.904L212.068 451.917ZM213.934 215.837L215.221 217.124C213.471 218.912 211.746 220.74 210.073 222.593V215.837H213.934ZM210.073 213.958V211.977L212.068 213.971L210.073 213.958ZM454.453 215.837V223.815C452.446 221.525 450.374 219.294 448.238 217.124L449.525 215.837H454.453ZM451.391 213.958L454.453 210.883V213.958H451.391ZM454.453 331.985H450.052C449.857 301.112 437.666 271.524 416.055 249.474L446.938 218.462C449.512 221.096 452.026 223.828 454.479 226.659L454.453 331.985ZM456.319 228.885C480.321 257.894 493.511 294.334 493.637 331.985H456.319V228.885ZM414.729 250.761C436.001 272.447 448 301.558 448.187 331.934H333.981L414.729 250.761ZM332.669 330.544V215.837C362.941 216.048 391.925 228.115 413.404 249.449L332.669 330.544ZM330.79 330.544L250.042 249.359C271.545 228.064 300.528 216.032 330.79 215.837V330.544ZM329.503 331.831H215.272C215.466 301.456 227.464 272.348 248.729 250.658L329.503 331.831ZM329.503 333.71L248.755 414.882C227.49 393.193 215.492 364.084 215.298 333.71H329.503ZM330.79 334.997V450.038C300.512 449.826 271.523 437.754 250.042 416.414L330.79 334.997ZM332.669 334.997L413.404 416.169C391.969 437.601 362.979 449.763 332.669 450.038V334.997ZM333.956 333.71H448.148C447.961 364.086 435.962 393.197 414.691 414.882L333.956 333.71ZM445.587 217.124L414.704 248.149C397.752 231.332 376.09 220.063 352.589 215.837H444.275L445.587 217.124ZM332.669 213.958V170.116C373.451 170.316 412.636 185.99 442.306 213.971L332.669 213.958ZM330.79 213.958H221.153C250.817 185.969 290.006 170.294 330.79 170.103V213.958ZM310.857 215.837C287.349 220.064 265.678 231.332 248.717 248.149L217.833 217.124L219.12 215.837H310.857ZM216.546 218.411L247.43 249.423C225.809 271.466 213.615 301.058 213.432 331.934H210.099V225.437C212.171 223.056 214.32 220.727 216.546 218.475V218.411ZM208.208 331.934H169.77C169.914 293.706 183.523 256.751 208.208 227.56V331.934ZM208.208 333.813V438.187C183.523 408.996 169.914 372.041 169.77 333.813H208.208ZM210.073 333.813H213.406C213.587 364.685 225.781 394.274 247.404 416.311L216.52 447.336C214.294 445.084 212.145 442.755 210.086 440.374L210.073 333.813ZM217.872 448.751L248.755 417.726C265.707 434.537 287.362 445.804 310.857 450.038H219.184L217.872 448.751ZM330.79 451.917V495.772C290.006 495.581 250.817 479.906 221.153 451.917H330.79ZM332.669 451.917H442.306C412.636 479.898 373.451 495.572 332.669 495.772V451.917ZM352.589 450.038C376.099 445.817 397.771 434.548 414.729 417.726L445.613 448.751L444.326 450.038H352.589ZM446.913 447.465L416.029 416.439C437.643 394.397 449.835 364.812 450.027 333.941H454.428V439.268C452.026 442.047 449.521 444.779 446.913 447.465ZM456.319 333.941H493.637C493.511 371.592 480.321 408.032 456.319 437.041V333.941ZM495.554 332.063C495.411 293.201 481.511 255.645 456.319 226.054V215.837H555.276C573.903 251.725 583.668 291.551 583.753 331.985L495.554 332.063ZM456.319 214.035V209.068L510.597 154.52C527.98 172.126 542.698 192.176 554.285 214.035H456.319ZM456.319 206.417V112.66C475.677 123.752 493.482 137.355 509.272 153.117L456.319 206.417ZM454.453 208.296L448.753 214.035H445.034C414.881 184.857 374.627 168.446 332.669 168.225V79.5884C375.332 79.6821 417.26 90.7046 454.453 111.605V208.296ZM330.79 168.225C288.842 168.423 248.589 184.806 218.425 213.958H214.706L210.073 209.3V110.987C247.008 90.475 288.542 79.6676 330.79 79.5756V168.225ZM208.208 207.434L154.161 153.117C170.252 137.067 188.431 123.255 208.208 112.055V207.434ZM208.208 210.098V213.958H109.122C120.705 192.096 135.424 172.045 152.81 154.443L208.208 210.098ZM208.208 215.85V224.729C182.35 254.5 168.043 292.566 167.891 331.998H79.7056C79.789 291.56 89.5537 251.729 108.183 215.837L208.208 215.85ZM167.891 333.877C168.043 373.309 182.35 411.376 208.208 441.146V450.038H108.183C89.5557 414.15 79.7911 374.324 79.7056 333.89L167.891 333.877ZM208.208 451.904V455.765L152.874 511.394C135.488 493.791 120.77 473.741 109.187 451.878L208.208 451.904ZM208.208 458.441V553.82C188.431 542.62 170.252 528.808 154.161 512.758L208.208 458.441ZM210.073 456.562L214.706 451.904H218.425C248.587 481.061 288.84 497.449 330.79 497.651V586.313C288.542 586.21 247.009 575.398 210.073 554.888V456.562ZM332.669 497.651C374.617 497.45 414.869 481.067 445.034 451.917H448.753L454.453 457.656V554.271C417.259 575.169 375.332 586.195 332.669 586.3V497.651ZM456.319 459.535L509.272 512.771C493.476 528.526 475.672 542.129 456.319 553.228V459.535ZM456.319 456.884V451.917H554.285C542.698 473.777 527.98 493.827 510.597 511.432L456.319 456.884ZM456.319 450.038V439.898C481.511 410.307 495.411 372.752 495.554 333.89H583.753C583.668 374.324 573.903 414.15 555.276 450.038H456.319ZM585.619 333.89H616.284V450.038H557.386C575.862 414.1 585.539 374.287 585.619 333.877V333.89ZM585.619 332.011C585.541 291.597 575.864 251.78 557.386 215.837H616.284V331.985L585.619 332.011ZM556.395 213.984C544.651 191.619 529.664 171.113 511.923 153.13L615.1 49.4511L615.19 49.5283C615.576 49.9272 615.962 50.3519 616.348 50.8151V213.971L556.395 213.984ZM613.685 48.1514L510.597 151.792C494.435 135.66 476.179 121.771 456.319 110.498V46.8646H612.346L613.685 48.1514ZM454.453 109.456C417.202 88.7297 375.298 77.8021 332.669 77.6968V46.8131H454.453V109.456ZM332.669 44.9858V2.81674H454.453V44.9858H332.669ZM330.79 44.9858H210.073V2.81674H330.79V44.9858ZM330.79 46.8646V77.7483C288.576 77.8471 247.064 88.5603 210.073 108.902V46.8646H330.79ZM208.208 109.919C187.938 121.29 169.32 135.383 152.874 151.805L49.7871 48.1643L51.0739 46.8775H208.208V109.919ZM48.333 49.5283L48.4102 49.4511L151.536 153.117C133.787 171.096 118.796 191.603 107.051 213.971H47.162V50.7637C47.6124 50.3519 47.9341 49.9272 48.333 49.5283ZM106.073 215.837C87.5987 251.772 77.9223 291.58 77.8398 331.985H47.162V215.837H106.073ZM77.8398 333.864C77.9183 374.278 87.5948 414.096 106.073 450.038H47.162V333.877L77.8398 333.864ZM107.051 451.891C118.796 474.259 133.787 494.766 151.536 512.745L48.4102 616.424L48.333 616.347C47.9341 615.948 47.5609 615.523 47.162 615.06V451.904L107.051 451.891ZM49.7742 617.724L152.861 514.083C169.311 530.506 187.927 544.602 208.195 555.982V619.036H51.1125L49.7742 617.724ZM210.073 557.025C247.064 577.366 288.576 588.08 330.79 588.178V619.062H210.073V557.025ZM330.79 620.889V663.058H210.073V620.889H330.79ZM332.669 620.889H454.453V663.058H332.669V620.889ZM332.669 619.011V588.127C375.298 588.022 417.202 577.094 454.453 556.368V618.959L332.669 619.011ZM456.319 555.377C476.179 544.104 494.435 530.216 510.597 514.083L613.685 617.724L612.398 619.011H456.319V555.377ZM615.1 616.347L615.01 616.424L511.897 512.758C529.639 494.775 544.625 474.269 556.37 451.904H616.258V615.112L615.1 616.347ZM661.58 161.791V331.998H618.163V215.837H660.911V213.958H618.163V52.7325C646.032 82.2061 661.567 121.227 661.58 161.791ZM610.39 44.9472H456.319V2.81674H503.404C543.114 2.84607 581.34 17.9129 610.39 44.9858V44.9472ZM160.003 2.77814H208.208V44.9472H53.0685C82.1211 17.8902 120.341 2.83755 160.042 2.81674L160.003 2.77814ZM1.86589 504.085V161.791C1.87391 121.212 17.4138 82.1759 45.2961 52.6939V213.932H2.57364V215.837H45.2961V331.985H2.41922V333.864H45.2961V450.038H2.57364V451.917H45.2961V613.156C17.4199 583.68 1.88049 544.654 1.86589 504.085ZM53.0685 620.928H208.208V663.097H160.042C120.331 663.055 82.1092 647.975 53.0685 620.889V620.928ZM503.456 663.097H456.319V620.889H610.39C581.338 647.96 543.114 663.027 503.404 663.058L503.456 663.097Z" fill="url(#paint0_radial_415_11747)"/>
<mask id="mask0_415_11747" style="mask-type:alpha" maskUnits="userSpaceOnUse" x="-13" y="0" width="592" height="665">
<rect x="-12.7969" width="591.785" height="664.938" fill="url(#paint1_linear_415_11747)"/>
</mask>
<g mask="url(#mask0_415_11747)">
<g filter="url(#filter0_b_415_11747)">
<path d="M82.8643 584.71C82.8643 579.582 82.8643 577.019 83.8779 575.067C84.7321 573.423 86.0729 572.082 87.7173 571.228C89.6687 570.214 92.2324 570.214 97.3597 570.214H147.148C152.276 570.214 154.839 570.214 156.791 571.228C158.435 572.082 159.776 573.423 160.63 575.067C161.644 577.019 161.644 579.582 161.644 584.71V634.499C161.644 639.626 161.644 642.19 160.63 644.141C159.776 645.785 158.435 647.126 156.791 647.98C154.839 648.994 152.276 648.994 147.148 648.994H97.3597C92.2324 648.994 89.6687 648.994 87.7173 647.98C86.0729 647.126 84.7321 645.785 83.8779 644.141C82.8643 642.19 82.8643 639.626 82.8643 634.499V584.71Z" fill="white" fill-opacity="0.1"/>
<path d="M147.148 569.745H97.3597H97.3374C94.7926 569.745 92.8539 569.745 91.3087 569.874C89.7534 570.003 88.5549 570.264 87.5012 570.812C85.7711 571.711 84.3605 573.121 83.4618 574.851C82.9144 575.905 82.6528 577.104 82.5236 578.659C82.3953 580.204 82.3953 582.143 82.3953 584.687V584.71V634.499V634.521C82.3953 637.066 82.3953 639.004 82.5236 640.55C82.6528 642.105 82.9144 643.303 83.4618 644.357C84.3605 646.087 85.7711 647.498 87.5012 648.396C88.5549 648.944 89.7534 649.205 91.3087 649.335C92.8538 649.463 94.7924 649.463 97.3371 649.463H97.3597H147.148H147.171C149.716 649.463 151.654 649.463 153.199 649.335C154.755 649.205 155.953 648.944 157.007 648.396C158.737 647.498 160.148 646.087 161.046 644.357C161.594 643.303 161.855 642.105 161.985 640.55C162.113 639.004 162.113 637.066 162.113 634.521V634.499V584.71V584.687C162.113 582.143 162.113 580.204 161.985 578.659C161.855 577.104 161.594 575.905 161.046 574.851C160.148 573.121 158.737 571.711 157.007 570.812C155.953 570.264 154.755 570.003 153.199 569.874C151.654 569.745 149.716 569.745 147.171 569.745H147.148Z" stroke="white" stroke-opacity="0.2" stroke-width="0.937853"/>
</g>
<g clip-path="url(#clip0_415_11747)">
<path
  transform="translate(98.4551 585.80655) scale(3.399707143)"
  d="m 3.6502072,9.82213 c -0.7184,-0.061 -1.3942,-0.3807 -1.8898,-0.8952 -0.3682,-0.3824 -0.6155,-0.8498 -0.7298,-1.3797 -0.026,-0.1208 -0.026,-0.1258 -0.03,-0.5144 0,-0.3866 0,-0.3943 0.021,-0.5209 0.1704,-0.9237 0.7868,-1.6972 1.6621,-2.0858 0.5822,-0.2585 1.2332,-0.3235 1.9128,-0.191 0.8873,0.173 1.6308,0.7151 2.3059,1.6814 0.044,0.063 0.082,0.1143 0.086,0.1146 0,2e-4 0.044,-0.053 0.09,-0.1193 0.6173,-0.8761 1.2583,-1.3834 2.035,-1.6109 0.3111,-0.091 0.6,-0.1304 0.9562998,-0.1304 0.212,0 0.3231,0.01 0.5115,0.041 0.9744,0.1642 1.8047,0.8048 2.1898,1.6893 0.2938,0.6747 0.3045,1.4418 0.03,2.1255 -0.2979,0.7417 -0.9057,1.3274 -1.6801,1.6193 -0.1952,0.074 -0.4404,0.1332 -0.6804,0.1656 -0.104,0.014 -0.1899,0.017 -0.4786998,0.017 -0.3133,-2e-4 -0.3658,0 -0.4787,-0.02 -0.4547,-0.072 -0.8144,-0.2097 -1.1731,-0.4487 -0.4251,-0.2833 -0.7966,-0.6813 -1.2199,-1.3069 -0.053,-0.079 -0.099,-0.143 -0.1025,-0.1428 0,3e-4 -0.054,0.073 -0.1136,0.1614 -0.1312,0.1958 -0.2919,0.4115 -0.4281,0.575 -0.1192,0.143 -0.3771,0.4046 -0.4933,0.5005 -0.477,0.3932 -0.9761,0.6092 -1.5536,0.6722 -0.1457,0.016 -0.5804,0.018 -0.7489,0 z m 0.6664,-0.995 c 0.6559,-0.074 1.1648,-0.4629 1.7497,-1.3362 0.066,-0.098 0.169,-0.2573 0.2295,-0.3538 l 0.1101,-0.1754 -0.096,-0.1484 c -0.2846,-0.4379 -0.4848,-0.6963 -0.7301,-0.9423 -0.4165,-0.4177 -0.8233,-0.6225 -1.3802,-0.6948 -0.1358,-0.018 -0.452,-0.015 -0.5819,0 -0.8151,0.1235 -1.4484,0.6995 -1.6107,1.4649 -0.03,0.1405 -0.041,0.4279 -0.023,0.5752 0.037,0.2946 0.1616,0.5998 0.3463,0.8473 0.067,0.089 0.2291,0.2574 0.3203,0.3312 0.2038,0.165 0.4666,0.3 0.7158,0.3676 0.2574,0.07 0.6467,0.095 0.9501,0.06 z m -1.3374,-1.9087 0,-0.2112 0.9995,0 0.9996,0 0,0.2112 0,0.2112 -0.9996,0 -0.9995,0 z m 7.2320998,1.9143 c 0.4921,-0.025 1.0055,-0.2709 1.329,-0.6373 0.1235,-0.1399 0.1964,-0.247 0.2752,-0.4042 0.1561,-0.3115 0.2164,-0.6297 0.1826,-0.9633 -0.085,-0.8409 -0.7497,-1.5109 -1.6326,-1.6467 -0.078,-0.012 -0.1632,-0.017 -0.305,-0.016 -0.8406998,3e-4 -1.4512998,0.3503 -2.0772998,1.1906 -0.1104,0.1481 -0.4052,0.588 -0.4052,0.6045 0,0.03 0.3882,0.6236 0.5443,0.8315 0.4694,0.6252 0.8976,0.9279 1.4475,1.0233 0.1658,0.029 0.3336,0.034 0.6414998,0.018 z m -0.5684998,-1.3653 0,-0.2721 -0.2675,0 -0.2674,0 0,-0.2769 0,-0.2769 0.2674,0 0.2675,0 0,-0.2722 0,-0.2721 0.2816,0 0.2814998,0 0,0.2721 0,0.2722 0.2722,0 0.2722,0 0,0.2769 0,0.2769 -0.2722,0 -0.2722,0 0,0.2721 0,0.2722 -0.2814998,0 -0.2816,0 z m 2.7217998,-2.9235 0,-0.1173 -0.042,0 c -0.039,0 -0.042,0 -0.042,-0.024 l 0,-0.024 0.1126,0 0.1127,0 0,0.024 c 0,0.022 0,0.024 -0.042,0.024 l -0.042,0 0,0.1173 0,0.1173 -0.028,0 -0.028,0 z m 0.1595,-0.023 0,-0.1408 0.037,0 0.037,0 0.031,0.094 c 0.017,0.052 0.033,0.094 0.036,0.094 0,0 0.017,-0.042 0.032,-0.094 l 0.027,-0.094 0.036,0 0.036,0 0,0.1408 0,0.1408 -0.023,0 c -0.023,0 -0.023,-0.001 -0.026,-0.091 l 0,-0.091 -0.029,0.089 c -0.025,0.079 -0.032,0.09 -0.052,0.092 -0.022,0 -0.025,0 -0.052,-0.089 l -0.029,-0.092 -0.001,0.091 -9e-4,0.091 -0.028,0 -0.028,0 z"
  fill="white"
/>

</g>
<g filter="url(#filter1_b_415_11747)">
<path d="M359.185 66.2432H309.479C301.709 66.2432 295.411 72.5415 295.411 80.311V130.017C295.411 137.787 301.709 144.085 309.479 144.085H359.185C366.955 144.085 373.253 137.787 373.253 130.017V80.311C373.253 72.5415 366.955 66.2432 359.185 66.2432Z" fill="white" fill-opacity="0.1"/>
<path d="M359.185 65.7742H309.479C301.451 65.7742 294.942 72.2825 294.942 80.311V130.017C294.942 138.046 301.451 144.554 309.479 144.554H359.185C367.214 144.554 373.722 138.046 373.722 130.017V80.311C373.722 72.2826 367.214 65.7742 359.185 65.7742Z" stroke="white" stroke-opacity="0.2" stroke-width="0.937853"/>
</g>
<!-- TensorFlow branco no mesmo slot do path original -->
<path
  fill="white"
  d="M452.23 123.16L235.73 0L235.73 506.11L322.33 456.07L322.33 313.67L387.76 351.2L386.8 254.02L322.33 216.49L322.33 159.72L452.23 235.73L452.23 123.16Z M0 123.16L216.49 0L216.49 506.11L129.89 456.07L129.89 159.72L0 235.73L0 123.16Z"
  transform="translate(305.853152,80.461) scale(0.107341991) translate(23.09,1.92)"
/>
<g filter="url(#filter2_b_415_11747)">
<rect x="131.038" y="25.6665" width="78.7796" height="78.7796" rx="15.0056" fill="white" fill-opacity="0.1"/>
<rect x="130.569" y="25.1976" width="79.7175" height="79.7175" rx="15.4746" stroke="white" stroke-opacity="0.2" stroke-width="0.937853"/>

<path
  fill="white"
  d="m15.21 10.923v-3.159h3.533v3.159zm3.533-10.923v3.267h-3.533v-3.267zm4.177 7.77v3.159h-3.533v-3.159zm-8.353-3.855v3.213h-3.533v-3.213zm4.177 0v3.213h-3.534v-3.213zm14.834 5.348.696.482-.482.914c-.504.998-1.377 1.749-2.434 2.081l-.029.008c-.662.205-1.423.324-2.211.324-.07 0-.139-.001-.208-.003h.01c-1.36 3.409-3.692 6.19-6.652 8.072l-.068.041c-2.937 1.771-6.484 2.819-10.276 2.819-.2 0-.398-.003-.597-.009l.029.001q-5.89 0-8.889-3.534c-.957-1.185-1.68-2.603-2.072-4.152l-.016-.076c-.239-.864-.377-1.857-.377-2.881 0-.551.04-1.094.117-1.624l-.007.06h23.294c.044.001.096.002.148.002.885 0 1.719-.219 2.451-.605l-.029.014c-.416-.669-.663-1.481-.663-2.35 0-.153.008-.304.023-.453l-.002.019c.049-1.036.361-1.991.871-2.809l-.014.025.536-.75.75.536c1.139.766 1.944 1.956 2.189 3.339l.005.031c.39-.062.841-.097 1.299-.097.307 0 .61.016.909.047l-.037-.003c.647.024 1.245.22 1.753.542l-.014-.009zm-27.363-1.499v3.159h-3.534v-3.159zm4.177 0v3.159h-3.532v-3.159zm4.177 0v3.159h-3.535v-3.159zm-4.178-3.855v3.213h-3.531v-3.213z"
  transform="translate(144.2985,47.909853) scale(1.536971)"
/>


</g>
<g filter="url(#filter4_b_415_11747)">
<rect x="415.767" y="332.938" width="78.7797" height="78.7797" rx="14.0678" transform="rotate(0.656233 415.767 332.938)" fill="white" fill-opacity="0.1"/>
<rect x="415.303" y="332.464" width="79.7175" height="79.7175" rx="14.5367" transform="rotate(0.656233 415.303 332.464)" stroke="white" stroke-opacity="0.2" stroke-width="0.937853"/>
</g>
<!-- substitui os dois <path> antigos por este bloco -->
<g transform="translate(426.702000 344.849000) scale(4)">
  <path fill="white" d="M 4.8457031 1 C 4.7850211 1.0018831 4.7186513 1.0235473 4.6445312 1.0820312 C 4.4629532 1.0120106 4.288294 0.98830976 4.1308594 1.1308594 C 3.8877495 1.0993255 3.8079023 1.1642667 3.7480469 1.2402344 C 3.6946801 1.2391278 3.3481116 1.1852034 3.1894531 1.421875 C 2.7907361 1.374695 2.6658127 1.657229 2.8085938 1.9199219 C 2.7271618 2.0459869 2.6415959 2.1698296 2.8320312 2.4101562 C 2.7646643 2.5440091 2.8081062 2.6895079 2.9667969 2.8652344 C 2.9249169 3.0534015 3.0066389 3.1855983 3.1542969 3.2890625 C 3.1266809 3.5465578 3.3899991 3.69665 3.46875 3.75 C 3.498991 3.9000357 3.5620248 4.0428123 3.8632812 4.1210938 C 3.9129632 4.3446878 4.0942071 4.382759 4.2695312 4.4296875 C 3.6900579 4.7665205 3.1938956 5.2094696 3.1972656 6.296875 L 3.1113281 6.4472656 C 2.4468836 6.851331 1.8484037 8.1514314 2.7832031 9.2070312 C 2.8442641 9.5374595 2.9478812 9.7744338 3.0390625 10.037109 C 3.1754354 11.095576 4.0660377 11.591776 4.3007812 11.650391 C 4.6447734 11.912413 5.0100828 12.159834 5.5058594 12.333984 C 5.9732172 12.815996 6.4791924 13.000302 6.9882812 13 C 6.9957413 12.999996 7.0042538 13.000084 7.0117188 13 C 7.5208077 13.000317 8.026766 12.816013 8.4941406 12.333984 C 8.9899004 12.159834 9.3552266 11.912413 9.6992188 11.650391 C 9.9339623 11.591781 10.824562 11.095576 10.960938 10.037109 C 11.052107 9.7744338 11.155735 9.5374596 11.216797 9.2070312 C 12.15158 8.1513476 11.553133 6.8513311 10.888672 6.4472656 L 10.802734 6.296875 C 10.806134 5.2095534 10.309943 4.7666043 9.7304688 4.4296875 C 9.905793 4.3827695 10.08704 4.3427448 10.136719 4.1191406 C 10.437974 4.0408456 10.501021 3.900024 10.53125 3.75 C 10.61001 3.696662 10.873317 3.5465578 10.845703 3.2890625 C 10.993358 3.1855882 11.075085 3.0533847 11.033203 2.8652344 C 11.191894 2.6895079 11.235344 2.5440177 11.167969 2.4101562 C 11.358433 2.1699301 11.272718 2.045987 11.191406 1.9199219 C 11.334079 1.6572291 11.209414 1.3746949 10.810547 1.421875 C 10.651938 1.1852033 10.305438 1.2391279 10.251953 1.2402344 C 10.192098 1.1642668 10.11225 1.0993256 9.8691406 1.1308594 C 9.7117059 0.9883098 9.5370467 1.0120088 9.3554688 1.0820312 C 9.1398555 0.91188785 8.9969519 1.0499947 8.8339844 1.1015625 C 8.5729347 1.0162611 8.513027 1.1321084 8.3847656 1.1796875 C 8.1000755 1.1195287 8.0134299 1.2504346 7.8769531 1.3886719 L 7.71875 1.3867188 C 7.2893508 1.6397711 7.0756156 2.1550327 7 2.4199219 C 6.9243492 2.1549824 6.7105654 1.6397207 6.28125 1.3867188 L 6.1230469 1.3886719 C 5.9864024 1.2504383 5.8999245 1.1195304 5.6152344 1.1796875 C 5.486973 1.1321084 5.427233 1.0162611 5.1660156 1.1015625 C 5.0590523 1.0677199 4.9615408 0.99640533 4.8457031 1 z M 4.8613281 1.3046875 C 5.0793893 1.3854505 5.1903417 1.4888692 5.3085938 1.5917969 C 5.3486848 1.5376909 5.4105084 1.4977395 5.3359375 1.3671875 C 5.49076 1.4564285 5.6070973 1.5618714 5.6933594 1.6796875 C 5.7891506 1.6186937 5.75143 1.5358574 5.7519531 1.4589844 C 5.9128516 1.5898697 6.015633 1.729227 6.140625 1.8652344 C 6.1658028 1.8469022 6.1875674 1.7838857 6.2070312 1.6855469 C 6.5908933 2.0579577 7.1325325 2.9972328 6.3457031 3.3691406 C 5.676061 2.816862 4.8764957 2.4144192 3.9902344 2.1132812 C 5.1294642 2.7006179 5.7914763 3.1754259 6.1542969 3.5800781 C 5.9684938 4.3247992 4.9989688 4.3587813 4.6445312 4.3378906 C 4.7171021 4.3041118 4.7773573 4.2633393 4.7988281 4.2011719 C 4.7098918 4.1379667 4.3959383 4.19595 4.1757812 4.0722656 C 4.2603516 4.0547449 4.3002855 4.0370199 4.3398438 3.9746094 C 4.1318422 3.9082706 3.9071562 3.8520832 3.7753906 3.7421875 C 3.8465016 3.7430661 3.9129948 3.7577674 4.0058594 3.6933594 C 3.8195534 3.5929605 3.6212471 3.512836 3.4667969 3.359375 C 3.563122 3.3570172 3.6670697 3.3576876 3.6972656 3.3222656 C 3.5267534 3.2166268 3.3827622 3.0991992 3.2636719 2.9707031 C 3.3984722 2.986975 3.4537346 2.9726978 3.4863281 2.9492188 C 3.3574329 2.8171982 3.1949659 2.7056512 3.1171875 2.5429688 C 3.217275 2.5774657 3.3089915 2.5917476 3.375 2.5410156 C 3.3312 2.4422036 3.1431978 2.3832544 3.0351562 2.1523438 C 3.1405219 2.1625606 3.2530413 2.1753316 3.2753906 2.1523438 C 3.2264836 1.953093 3.1428522 1.840665 3.0605469 1.7246094 C 3.2860523 1.7212561 3.6268033 1.7260944 3.6113281 1.7070312 L 3.4726562 1.5644531 C 3.6929308 1.5051481 3.91841 1.573905 4.0820312 1.625 C 4.1554993 1.567028 4.0798704 1.4947662 3.9902344 1.4199219 C 4.177429 1.4449139 4.347109 1.4875895 4.5 1.546875 C 4.581692 1.473116 4.4460309 1.3999314 4.3808594 1.3261719 C 4.6700596 1.3810409 4.7922896 1.4579597 4.9140625 1.5351562 C 5.0024105 1.4504733 4.9209501 1.3784035 4.8613281 1.3046875 z M 9.1660156 1.3046875 C 9.1063957 1.3784034 9.0229803 1.4504735 9.1113281 1.5351562 C 9.233101 1.4579595 9.3553312 1.381041 9.6445312 1.3261719 C 9.5793595 1.3999315 9.443699 1.4731155 9.5253906 1.546875 C 9.6782816 1.4875897 9.8479624 1.4449135 10.035156 1.4199219 C 9.9455206 1.4947662 9.8698914 1.567028 9.9433594 1.625 C 10.10698 1.573905 10.332459 1.5051481 10.552734 1.5644531 L 10.414062 1.7070312 C 10.398589 1.7260971 10.739339 1.7212594 10.964844 1.7246094 C 10.882547 1.8406651 10.799 1.9530103 10.75 2.1523438 C 10.77235 2.1753317 10.884868 2.1625606 10.990234 2.1523438 C 10.882193 2.3832546 10.694191 2.4422036 10.650391 2.5410156 C 10.7164 2.5917476 10.808116 2.5774656 10.908203 2.5429688 C 10.830425 2.7056511 10.667957 2.8171982 10.539062 2.9492188 C 10.571658 2.9726976 10.628872 2.9869751 10.763672 2.9707031 C 10.644582 3.0991992 10.50059 3.2166268 10.330078 3.3222656 C 10.360274 3.3576873 10.464217 3.357015 10.560547 3.359375 C 10.406097 3.512836 10.205837 3.5929601 10.019531 3.6933594 C 10.112396 3.7577674 10.17889 3.7430661 10.25 3.7421875 C 10.118234 3.8520832 9.8955014 3.9082706 9.6875 3.9746094 C 9.7270581 4.0370199 9.765039 4.0547449 9.8496094 4.0722656 C 9.6294524 4.19595 9.3154989 4.1379667 9.2265625 4.2011719 C 9.2480333 4.2633393 9.3082886 4.3041118 9.3808594 4.3378906 C 9.0264219 4.3587813 8.0568966 4.3247992 7.8710938 3.5800781 C 8.2339143 3.1753421 8.8960605 2.7006683 10.035156 2.1132812 C 9.148828 2.4144192 8.3489775 2.8167447 7.6796875 3.3691406 C 6.8928582 2.9972328 7.4364504 2.0579578 7.8203125 1.6855469 C 7.8397764 1.7838857 7.861541 1.8469022 7.8867188 1.8652344 C 8.0117107 1.729227 8.112539 1.5898698 8.2734375 1.4589844 C 8.2739606 1.5358575 8.2362393 1.6186938 8.3320312 1.6796875 C 8.4182934 1.5618715 8.5346307 1.4564289 8.6894531 1.3671875 C 8.6148821 1.4977392 8.6767055 1.5376906 8.7167969 1.5917969 C 8.8350489 1.4888692 8.9479544 1.3854503 9.1660156 1.3046875 z M 6.9960938 4.3710938 C 7.5540393 4.3649574 8.2449512 4.7875173 8.2421875 5.1855469 C 8.2397564 5.5368659 7.7565413 5.8218252 7 5.8164062 C 6.2591687 5.8075706 5.7599646 5.4595615 5.7617188 5.1191406 C 5.7631773 4.8389774 6.367311 4.3547386 6.9960938 4.3710938 z M 5.0976562 4.609375 C 5.2223867 4.60705 5.3507234 4.6164357 5.4824219 4.6386719 C 5.8705595 4.7038924 3.6225463 6.6664488 3.5878906 6.2285156 C 3.556936 5.2290196 4.2245436 4.62565 5.0976562 4.609375 z M 8.7773438 4.6425781 C 9.6504162 4.6588288 10.318063 5.2621347 10.287109 6.2617188 C 10.252455 6.6996686 8.0044406 4.7370788 8.3925781 4.671875 C 8.5242662 4.6496388 8.6526191 4.6402566 8.7773438 4.6425781 z M 8.40625 5.8613281 A 1.4440674 1.2239132 55.965822 0 1 9.3574219 8.4453125 A 1.4447495 1.2244913 55.965822 0 1 7.7636719 6.0351562 A 1.4440674 1.2239132 55.965822 0 1 8.40625 5.8613281 z M 5.5957031 5.9296875 A 1.2239132 1.4440674 34.034178 0 1 6.2382812 6.1015625 A 1.2240376 1.4442142 34.034178 1 1 4.6464844 8.5117188 A 1.2239132 1.4440674 34.034178 0 1 5.5957031 5.9296875 z M 10.466797 6.6738281 C 11.479744 7.252262 11.304172 8.5390232 10.757812 8.9785156 C 10.261114 9.1991588 9.8562724 6.510242 10.466797 6.6738281 z M 3.4121094 6.7070312 C 4.0225668 6.5433932 3.6177925 9.2343151 3.1210938 9.0136719 C 2.5747335 8.5742298 2.3991627 7.2854652 3.4121094 6.7070312 z M 7.0605469 8.4316406 A 1.3646002 1.258327 0 0 1 8.3925781 9.6972656 A 1.3646002 1.258327 0 1 1 5.6640625 9.6972656 A 1.3646002 1.258327 0 0 1 7.0605469 8.4316406 z M 10.042969 8.90625 C 10.149559 8.9034714 10.249876 8.9343182 10.339844 9.0039062 C 10.582102 9.245306 10.724899 10.154904 10.300781 10.699219 C 9.7166976 11.509663 8.925408 11.540193 8.6308594 11.314453 C 8.3227973 11.023895 8.5581783 10.121589 8.9804688 9.6269531 C 9.3428953 9.217735 9.7231981 8.9145858 10.042969 8.90625 z M 3.9179688 9.0996094 C 4.2615285 9.1143374 4.6738213 9.3856016 5.0097656 9.7753906 C 5.4000659 10.245615 5.5776701 11.072877 5.2519531 11.316406 C 4.9438071 11.50231 4.1940003 11.426205 3.6621094 10.662109 C 3.3033965 10.020936 3.3496989 9.3674525 3.6015625 9.1757812 C 3.6957215 9.1184241 3.8034487 9.0947 3.9179688 9.0996094 z M 7.0332031 11.353516 C 7.5814076 11.329586 8.3169175 11.528943 8.3183594 11.794922 C 8.3274594 12.053206 7.6525322 12.636284 6.9980469 12.625 C 6.3202397 12.65424 5.6553609 12.069772 5.6640625 11.867188 C 5.6539175 11.570158 6.488419 11.339885 7.0332031 11.353516 z"/>
</g>

<g filter="url(#filter5_b_415_11747)">
<rect x="210.412" y="166" width="78.7797" height="78.7797" rx="14.0678" fill="white" fill-opacity="0.1"/>
<rect x="209.943" y="165.531" width="79.7175" height="79.7175" rx="14.5367" stroke="white" stroke-opacity="0.2" stroke-width="0.937853"/>
</g>
<path fill="white" transform="translate(228.231,179.144) scale(0.10246)" d="M361.528 149.237l-38.178 38.179c62.472 62.472 62.472 163.12 0 224.435-62.472 62.472-163.12 62.472-224.435 0-62.472-62.472-62.472-163.122 0-224.435l98.914-98.915 13.882-13.882V0L62.472 149.237c-83.296 83.296-83.296 217.496 0 300.79 83.296 83.298 217.496 83.298 299.056 0 83.296-83.873 83.296-217.494 0-300.79z M314.675 112.218c0 15.334-12.431 27.765-27.766 27.765-15.336 0-27.767-12.431-27.767-27.765 0-15.335 12.431-27.766 27.767-27.766 15.335 0 27.766 12.431 27.766 27.766z"/>

<g filter="url(#filter6_b_415_11747)">
<rect x="360.62" y="216.795" width="78.7797" height="78.7797" rx="14.0678" fill="white" fill-opacity="0.1"/>
<rect x="360.151" y="216.326" width="79.7175" height="79.7175" rx="14.5367" stroke="white" stroke-opacity="0.2" stroke-width="0.937853"/>
</g>
<g clip-path="url(#clip1_415_11747)">
<path
  fill="white"
  transform="translate(373.3995 229.167) scale(1.66071875)"
  d="M15.534 8.411c0 0.102-0.102 0.102-0.102 0.102h-0.102c-0.102 0-0.102-0.102-0.204-0.204 0 0-0.102-0.102-0.102-0.204s0-0.102 0.102-0.102l0.204 0.102c0.102 0.102 0.204 0.204 0.204 0.306zM13.698 7.391c0-0.51-0.204-0.816-0.51-0.816 0 0 0 0.102-0.102 0.102v0.204h0.306c0 0.204 0.102 0.306 0.102 0.51h0.204zM17.268 6.881c0.204 0 0.306 0.204 0.408 0.51h0.204c-0.102-0.102-0.102-0.204-0.102-0.306s0-0.204-0.102-0.306-0.204-0.204-0.306-0.204c0 0-0.102 0.102-0.204 0.102 0 0.102 0.102 0.102 0.102 0.204zM14.208 8.513c-0.102 0-0.102 0-0.102-0.102s0-0.204 0.102-0.306c0.204 0 0.306-0.102 0.306-0.102 0.102 0 0.102 0.102 0.102 0.102 0 0.102-0.102 0.204-0.306 0.408h-0.102zM13.086 8.411c-0.408-0.204-0.51-0.51-0.51-1.020 0-0.306 0-0.51 0.204-0.714 0.102-0.204 0.306-0.306 0.51-0.306s0.306 0.102 0.51 0.306c0.102 0.306 0.204 0.612 0.204 0.918v0.204h0.102v-0.102c0.102 0 0.102-0.204 0.102-0.612 0-0.306 0-0.612-0.204-0.918s-0.408-0.51-0.816-0.51c-0.306 0-0.612 0.204-0.714 0.51-0.204 0.408-0.245 0.714-0.245 1.224 0 0.408 0.143 0.816 0.551 1.224 0.102-0.102 0.204-0.102 0.306-0.204zM25.834 22.791c0.102 0 0.102-0.041 0.102-0.133 0-0.224-0.102-0.489-0.408-0.785-0.306-0.306-0.816-0.5-1.428-0.581-0.102-0.010-0.204-0.010-0.204-0.010-0.102-0.020-0.102-0.020-0.204-0.020-0.102-0.010-0.306-0.031-0.408-0.051 0.306-0.949 0.408-1.785 0.408-2.519 0-1.020-0.204-1.734-0.612-2.346s-0.816-0.918-1.326-1.020c-0.102 0.102-0.102 0.102-0.102 0.204 0.51 0.204 1.020 0.612 1.326 1.224 0.306 0.714 0.408 1.326 0.408 2.040 0 0.571-0.102 1.418-0.51 2.499-0.408 0.163-0.816 0.54-1.122 1.132 0 0.092 0 0.143 0.102 0.143 0 0 0.102-0.092 0.204-0.265 0.204-0.173 0.306-0.347 0.51-0.52 0.306-0.173 0.51-0.265 0.816-0.265 0.51 0 1.020 0.071 1.326 0.214 0.408 0.133 0.612 0.275 0.714 0.439 0.102 0.153 0.204 0.296 0.306 0.428 0 0.132 0.102 0.194 0.102 0.194zM16.452 8.003c-0.102-0.102-0.102-0.306-0.102-0.51 0-0.408 0-0.612 0.204-0.918 0.204-0.204 0.408-0.306 0.612-0.306 0.306 0 0.51 0.204 0.714 0.408 0.102 0.306 0.204 0.51 0.204 0.816 0 0.51-0.204 0.816-0.612 0.918 0 0 0.102 0.102 0.204 0.102 0.204 0 0.306 0.102 0.51 0.204 0.102-0.612 0.204-1.020 0.204-1.53 0-0.612-0.102-1.020-0.306-1.326-0.306-0.306-0.612-0.408-1.020-0.408-0.306 0-0.612 0.102-0.918 0.306-0.204 0.306-0.306 0.51-0.306 0.816 0 0.51 0.102 0.918 0.306 1.326 0.102 0 0.204 0.102 0.306 0.102zM17.676 9.635c-1.326 0.918-2.346 1.326-3.162 1.326-0.714 0-1.428-0.306-2.040-0.816 0.102 0.204 0.204 0.408 0.306 0.51l0.612 0.612c0.408 0.408 0.918 0.612 1.428 0.612 0.714 0 1.53-0.408 2.55-1.122l0.918-0.612c0.204-0.204 0.408-0.408 0.408-0.714 0-0.102 0-0.204-0.102-0.204-0.102-0.204-0.612-0.51-1.632-0.816-0.918-0.408-1.632-0.612-2.040-0.612-0.306 0-0.816 0.204-1.53 0.612-0.612 0.408-1.020 0.816-1.020 1.224 0 0 0.102 0.102 0.204 0.306 0.612 0.51 1.224 0.816 1.836 0.816 0.816 0 1.836-0.408 3.162-1.428v0.204c0.102-0 0.102 0.102 0.102 0.102zM20.021 30.236c0.408 0.767 1.122 1.152 1.938 1.152 0.204 0 0.408-0.031 0.612-0.092 0.204-0.041 0.408-0.112 0.51-0.194 0.102-0.071 0.204-0.143 0.306-0.224 0.204-0.071 0.204-0.122 0.306-0.173l1.734-1.499c0.408-0.325 0.816-0.61 1.326-0.857 0.408-0.245 0.816-0.408 1.020-0.5 0.306-0.082 0.51-0.204 0.714-0.367 0.102-0.153 0.204-0.347 0.204-0.592 0-0.296-0.204-0.52-0.408-0.683s-0.408-0.275-0.612-0.347-0.408-0.235-0.714-0.51c-0.204-0.265-0.408-0.632-0.51-1.112l-0.102-0.591c-0.102-0.275-0.102-0.479-0.204-0.592 0-0.031 0-0.041-0.102-0.041s-0.306 0.092-0.408 0.265c-0.204 0.173-0.408 0.367-0.612 0.571-0.102 0.204-0.408 0.387-0.612 0.561-0.306 0.173-0.612 0.265-0.816 0.265-0.816 0-1.224-0.224-1.53-0.663-0.204-0.326-0.306-0.704-0.408-1.132-0.204-0.173-0.306-0.265-0.51-0.265-0.51 0-0.714 0.53-0.714 1.601v3.172c0 0.092-0.102 0.296-0.102 0.612-0.102 0.316-0.102 0.675-0.102 1.081l-0.204 1.132v0.017zM5.233 29.693c0.948 0.139 2.040 0.435 3.274 0.888 1.234 0.449 1.989 0.683 2.264 0.683 0.714 0 1.306-0.316 1.795-0.927 0.102-0.198 0.102-0.43 0.102-0.698 0-0.964-0.581-2.183-1.744-3.661l-0.694-0.928c-0.143-0.194-0.316-0.49-0.54-0.887-0.214-0.398-0.408-0.704-0.561-0.918-0.133-0.235-0.347-0.469-0.622-0.704-0.265-0.235-0.571-0.387-0.908-0.469-0.428 0.082-0.724 0.224-0.867 0.418s-0.224 0.408-0.245 0.632c-0.031 0.214-0.092 0.357-0.194 0.428-0.102 0.061-0.275 0.112-0.51 0.163-0.051 0-0.143 0-0.275 0.010h-0.275c-0.541 0-0.908 0.061-1.101 0.163-0.255 0.296-0.388 0.632-0.388 0.989 0 0.163 0.041 0.439 0.122 0.826 0.082 0.377 0.122 0.683 0.122 0.897 0 0.418-0.122 0.836-0.377 1.254-0.255 0.439-0.388 0.765-0.388 0.997 0.102 0.396 0.775 0.674 2.009 0.837zM8.629 20.42c0-0.704 0.184-1.479 0.561-2.397 0.367-0.918 0.734-1.53 1.091-1.938-0.020-0.102-0.071-0.102-0.153-0.102l-0.102-0.102c-0.296 0.306-0.653 1.020-1.081 2.040-0.428 0.918-0.653 1.764-0.653 2.387 0 0.459 0.112 0.857 0.316 1.203 0.224 0.337 0.765 0.826 1.622 1.448l1.081 0.704c1.152 1 1.764 1.693 1.764 2.101 0 0.214-0.102 0.428-0.408 0.663-0.204 0.245-0.479 0.367-0.714 0.367-0.020 0-0.031 0.020-0.031 0.071 0 0.010 0.102 0.214 0.316 0.612 0.428 0.581 1.346 0.867 2.57 0.867 2.244 0 3.977-0.918 5.303-2.754 0-0.51 0-0.826-0.102-0.959v-0.377c0-0.663 0.102-1.163 0.306-1.489s0.408-0.479 0.714-0.479c0.204 0 0.408 0.071 0.612 0.224 0.102-0.785 0.102-1.469 0.102-2.081 0-0.928 0-1.693-0.204-2.407-0.102-0.612-0.306-1.122-0.51-1.53-0.204-0.306-0.408-0.612-0.612-0.918s-0.306-0.612-0.51-0.918c-0.102-0.408-0.204-0.714-0.204-1.224-0.306-0.51-0.51-1.020-0.816-1.53-0.204-0.51-0.408-1.020-0.612-1.428l-0.918 0.714c-1.020 0.714-1.836 1.020-2.55 1.020-0.612 0-1.122-0.102-1.428-0.51l-0.612-0.51c0 0.306-0.102 0.714-0.306 1.122l-0.643 1.224c-0.286 0.714-0.438 1.122-0.469 1.428-0.041 0.204-0.071 0.408-0.092 0.408l-0.765 1.53c-0.826 1.53-1.244 2.947-1.244 4.12 0 0.235 0.020 0.479 0.061 0.724-0.459-0.316-0.683-0.755-0.683-1.326zM15.932 30.068c-1.326 0-2.346 0.18-3.060 0.535v-0.031c-0.51 0.612-1.081 0.928-1.877 0.928-0.5 0-1.285-0.194-2.346-0.581-1.071-0.367-2.019-0.649-2.845-0.834-0.082-0.023-0.265-0.058-0.561-0.105-0.286-0.046-0.551-0.093-0.785-0.14-0.214-0.046-0.459-0.115-0.724-0.209-0.255-0.081-0.459-0.186-0.612-0.313-0.141-0.129-0.21-0.273-0.21-0.436s0.035-0.337 0.104-0.523c0.065-0.112 0.137-0.224 0.208-0.326 0.071-0.112 0.133-0.214 0.173-0.316 0.061-0.092 0.102-0.184 0.143-0.286 0.041-0.092 0.082-0.184 0.102-0.296 0.020-0.102 0.041-0.204 0.041-0.306s-0.041-0.408-0.122-0.948c-0.082-0.53-0.122-0.867-0.122-1.010 0-0.449 0.102-0.806 0.326-1.061s0.439-0.388 0.663-0.388h1.173c0.092 0 0.235-0.051 0.449-0.173 0.071-0.163 0.133-0.296 0.173-0.418 0.051-0.122 0.071-0.214 0.092-0.255 0.020-0.061 0.041-0.122 0.061-0.173 0.041-0.071 0.092-0.153 0.163-0.235-0.082-0.102-0.122-0.235-0.122-0.398 0-0.112 0-0.214 0.020-0.275 0-0.367 0.173-0.887 0.54-1.571l0.357-0.643c0.296-0.551 0.52-0.959 0.683-1.367 0.173-0.408 0.357-1.020 0.561-1.836 0.163-0.714 0.551-1.428 1.163-2.142l0.765-0.918c0.53-0.612 0.877-1.122 1.071-1.53s0.296-0.918 0.296-1.326c0-0.204-0.051-0.816-0.163-1.836-0.102-1.020-0.153-2.040-0.153-2.958 0-0.714 0.061-1.224 0.194-1.734s0.367-1.020 0.714-1.428c0.306-0.408 0.714-0.816 1.326-1.020s1.326-0.306 2.142-0.306c0.306 0 0.612 0 0.918 0.102 0.306 0 0.714 0.102 1.224 0.306 0.408 0.204 0.816 0.408 1.122 0.714 0.408 0.306 0.714 0.816 1.020 1.326 0.204 0.612 0.408 1.224 0.51 2.040 0.102 0.51 0.102 1.020 0.204 1.734 0 0.612 0.102 1.020 0.102 1.326 0.102 0.306 0.102 0.714 0.204 1.224 0.102 0.408 0.204 0.816 0.408 1.122 0.204 0.408 0.408 0.816 0.714 1.224 0.306 0.51 0.714 1.020 1.122 1.632 0.918 1.020 1.632 2.142 2.040 3.263 0.51 1.020 0.816 2.346 0.816 3.763 0 0.704-0.102 1.387-0.306 2.050 0.204 0 0.306 0.082 0.408 0.224s0.204 0.449 0.306 0.928l0.102 0.755c0.102 0.224 0.204 0.439 0.51 0.622 0.204 0.184 0.408 0.337 0.714 0.459 0.204 0.102 0.51 0.245 0.714 0.428 0.204 0.204 0.306 0.418 0.306 0.642 0 0.347-0.102 0.602-0.306 0.785-0.204 0.204-0.408 0.347-0.714 0.439-0.204 0.102-0.612 0.306-1.224 0.594-0.51 0.302-1.020 0.668-1.53 1.101l-1.020 0.868c-0.408 0.398-0.816 0.683-1.122 0.857-0.306 0.184-0.714 0.275-1.122 0.275l-0.714-0.082c-0.816-0.214-1.326-0.622-1.632-1.244-1.632-0.198-2.958-0.296-3.774-0.296z"
/>

</g>
<g filter="url(#filter7_b_415_11747)">
<path d="M322.855 303.864H260.217C256.019 303.864 252.615 307.268 252.615 311.466V374.104C252.615 378.303 256.019 381.706 260.217 381.706H322.855C327.054 381.706 330.457 378.303 330.457 374.104V311.466C330.457 307.268 327.054 303.864 322.855 303.864Z" fill="white" fill-opacity="0.1"/>
<path d="M322.855 303.395H260.217C255.76 303.395 252.146 307.009 252.146 311.466V374.104C252.146 378.562 255.76 382.175 260.217 382.175H322.855C327.313 382.175 330.926 378.562 330.926 374.104V311.466C330.926 307.009 327.313 303.395 322.855 303.395Z" stroke="white" stroke-opacity="0.2" stroke-width="0.937853"/>
</g>
<path fill="white" transform="translate(258.311 310.073) scale(2.10253)" d="M18.009 18.494c-0.182 0-0.356 0.137-0.521 0.416-0.159 0.287-0.252 0.629-0.252 0.993 0 0.031 0.001 0.063 0.002 0.094l-0-0.004q1.061-0.298 1.061-1.101c0-0.265-0.096-0.397-0.29-0.397zM21.568 18.486q-0.414 0-0.786 0.704c-0.217 0.373-0.352 0.817-0.37 1.292l-0 0.005c-0 0.008-0.001 0.018-0.001 0.027 0 0.126 0.042 0.243 0.112 0.336l-0.001-0.001c0.063 0.085 0.162 0.139 0.275 0.139 0.001 0 0.003 0 0.004-0h-0c0.276 0 0.537-0.235 0.781-0.706 0.216-0.375 0.35-0.822 0.367-1.298l0-0.005c0.001-0.010 0.001-0.021 0.001-0.033 0-0.123-0.039-0.238-0.106-0.331l0.001 0.002c-0.062-0.080-0.158-0.13-0.266-0.13-0.004 0-0.008 0-0.012 0l0.001-0zM15.743 16.24c-0.1 0-0.25 0.255-0.445 0.764-0.218 0.591-0.416 1.308-0.559 2.045l-0.015 0.091c0.34-0.376 0.626-0.809 0.841-1.281l0.013-0.031c0.186-0.363 0.304-0.79 0.327-1.241l0-0.007c0-0.007 0-0.015 0-0.023 0-0.081-0.017-0.157-0.047-0.227l0.001 0.004q-0.047-0.094-0.116-0.094zM22.053 15.468h0.207v1.307h-0.207zM20.25 15.468h0.207v1.307h-0.209zM19.497 15.43c0.003-0 0.006-0 0.010-0 0.088 0 0.172 0.020 0.246 0.055l-0.003-0.002c0.111 0.052 0.195 0.147 0.233 0.262l0.001 0.003c0.014 0.046 0.025 0.1 0.029 0.155l0 0.002h-0.21c-0.006-0.083-0.042-0.156-0.097-0.21l-0-0c-0.053-0.047-0.123-0.075-0.2-0.075-0.005 0-0.009 0-0.013 0l0.001-0c-0.002-0-0.005-0-0.007-0-0.070 0-0.135 0.024-0.187 0.063l0.001-0.001c-0.057 0.046-0.101 0.107-0.124 0.177l-0.001 0.003c-0.027 0.078-0.043 0.168-0.043 0.262 0 0.006 0 0.012 0 0.019l-0-0.001c-0 0.006-0 0.012-0 0.019 0 0.089 0.016 0.175 0.046 0.254l-0.002-0.005c0.026 0.069 0.070 0.126 0.125 0.168l0.001 0.001c0.052 0.038 0.118 0.060 0.189 0.060 0.003 0 0.005-0 0.008-0h-0c0.177 0 0.284-0.105 0.32-0.315h0.209c-0.007 0.102-0.036 0.196-0.083 0.278l0.002-0.003c-0.043 0.074-0.105 0.133-0.18 0.171l-0.002 0.001c-0.075 0.038-0.163 0.060-0.257 0.060-0.005 0-0.009-0-0.013-0h0.001c-0.004 0-0.009 0-0.014 0-0.108 0-0.21-0.031-0.296-0.084l0.002 0.001c-0.088-0.059-0.157-0.141-0.2-0.236l-0.001-0.004c-0.045-0.102-0.071-0.222-0.071-0.347 0-0.007 0-0.013 0-0.020l-0 0.001c-0-0.004-0-0.010-0-0.015 0-0.099 0.015-0.194 0.042-0.283l-0.002 0.007c0.026-0.087 0.067-0.163 0.12-0.229l-0.001 0.001c0.050-0.062 0.112-0.112 0.184-0.145l0.003-0.001c0.068-0.032 0.148-0.050 0.233-0.050 0.002 0 0.004 0 0.006 0h-0zM18.203 15.43c0.006-0 0.013-0 0.020-0 0.086 0 0.168 0.018 0.243 0.049l-0.004-0.002c0.069 0.028 0.124 0.076 0.162 0.136l0.001 0.001c0.035 0.059 0.056 0.13 0.056 0.206 0 0.004-0 0.007-0 0.011v-0.001h-0.22c-0.008-0.139-0.094-0.209-0.26-0.209-0.006-0-0.013-0.001-0.020-0.001-0.068 0-0.132 0.019-0.186 0.053l0.002-0.001c-0.046 0.030-0.075 0.082-0.075 0.14 0 0.002 0 0.005 0 0.007v-0c0 0 0 0.001 0 0.001 0 0.045 0.022 0.085 0.056 0.109l0 0c0.053 0.036 0.116 0.063 0.185 0.075l0.003 0 0.2 0.049c0.108 0.019 0.203 0.066 0.281 0.132l-0.001-0.001c0.054 0.056 0.088 0.132 0.088 0.216 0 0.006-0 0.011-0 0.017l0-0.001c0 0.002 0 0.005 0 0.008 0 0.079-0.024 0.152-0.066 0.212l0.001-0.001c-0.047 0.065-0.112 0.115-0.187 0.144l-0.003 0.001c-0.080 0.032-0.172 0.051-0.269 0.051-0.005 0-0.009-0-0.014-0h0.001c-0.012 0.001-0.027 0.001-0.041 0.001-0.13 0-0.25-0.042-0.347-0.113l0.002 0.001c-0.084-0.080-0.137-0.193-0.137-0.318 0-0.006 0-0.013 0-0.019l-0 0.001h0.22c0.003 0.039 0.011 0.074 0.022 0.108l-0.001-0.003c0.010 0.026 0.025 0.049 0.043 0.068l-0-0c0.061 0.051 0.14 0.082 0.227 0.082 0.010 0 0.020-0 0.030-0.001l-0.001 0c0.006 0 0.013 0 0.019 0 0.075 0 0.144-0.021 0.204-0.058l-0.002 0.001c0.051-0.031 0.084-0.086 0.084-0.149 0-0 0-0 0-0v0c0-0.002 0-0.003 0-0.005 0-0.043-0.018-0.081-0.047-0.107l-0-0c-0.043-0.034-0.096-0.058-0.153-0.068l-0.002-0-0.195-0.047c-0.079-0.019-0.145-0.041-0.209-0.066l0.011 0.004c-0.047-0.020-0.087-0.046-0.123-0.077l0 0c-0.031-0.028-0.056-0.063-0.072-0.102l-0.001-0.002c-0.013-0.037-0.020-0.080-0.020-0.125 0-0.003 0-0.007 0-0.010v0.001c-0-0.004-0-0.008-0-0.012 0-0.113 0.053-0.213 0.136-0.278l0.001-0.001c0.092-0.068 0.208-0.109 0.333-0.109 0.010 0 0.020 0 0.031 0.001l-0.001-0zM22.654 15.108h0.207v0.36h0.215v0.169h-0.215v0.896c-0.002 0.008-0.003 0.016-0.003 0.025 0 0.053 0.043 0.096 0.096 0.096 0.009 0 0.017-0.001 0.025-0.003l-0.001 0c0.004 0 0.008 0 0.013 0 0.030 0 0.059-0.005 0.087-0.013l-0.002 0.001v0.176c-0.051 0.010-0.109 0.016-0.169 0.017h-0.001c-0.006 0-0.012 0.001-0.019 0.001-0.063 0-0.122-0.020-0.169-0.055l0.001 0.001c-0.040-0.035-0.065-0.085-0.065-0.142 0-0.004 0-0.008 0-0.012l-0 0.001v-0.987h-0.176v-0.17h0.176zM22.053 14.955h0.207v0.262h-0.207zM20.784 14.955h0.207v1.081l0.575-0.569h0.244l-0.455 0.452 0.535 0.855h-0.247l-0.446-0.719-0.205 0.207v0.512h-0.207zM20.25 14.955h0.207v0.262h-0.209zM4.898 14.508c-0.052-0.002-0.112-0.004-0.173-0.004-1.031 0-1.966 0.408-2.654 1.072l0.001-0.001c-0.65 0.833-1.042 1.895-1.042 3.049 0 1.552 0.71 2.938 1.822 3.851l0.009 0.007c1.092 0.911 2.511 1.463 4.058 1.463 1.038 0 2.019-0.249 2.884-0.69l-0.036 0.017c0.393-0.823 0.622-1.79 0.622-2.809 0-1.552-0.531-2.98-1.421-4.112l0.011 0.014c-1.039-1.081-2.473-1.777-4.068-1.856l-0.014-0.001zM26.404 18.166c-0.456 1.028-1.014 1.913-1.68 2.705l0.014-0.017c-0.009 0.055-0.014 0.118-0.015 0.183v0.001c-0 0.008-0 0.017-0 0.026 0 0.191 0.066 0.366 0.177 0.505l-0.001-0.002c0.098 0.13 0.251 0.212 0.424 0.212 0 0 0 0 0.001 0h-0c0.37 0 0.892-0.33 1.567-0.983-0.001 0.050-0.004 0.1-0.004 0.151q0 0.274 0.045 0.832l0.916-0.215c0-0.25 0.004-0.446 0.012-0.592 0.018-0.245 0.047-0.466 0.088-0.683l-0.006 0.037c0.030-0.152 0.097-0.286 0.191-0.395l-0.001 0.001 0.232-0.27c0.153-0.178 0.307-0.34 0.469-0.493l0.003-0.003c0.061-0.056 0.127-0.109 0.196-0.158l0.006-0.004c0.043-0.031 0.096-0.051 0.152-0.057l0.001-0c0.069 0 0.104 0.044 0.104 0.132-0.041 0.233-0.109 0.442-0.201 0.636l0.006-0.015c-0.187 0.395-0.317 0.854-0.364 1.338l-0.001 0.017c-0.001 0.011-0.001 0.025-0.001 0.038 0 0.184 0.064 0.353 0.172 0.485l-0.001-0.001c0.104 0.119 0.256 0.194 0.425 0.194 0.008 0 0.016-0 0.023-0l-0.001 0c0.676-0.118 1.251-0.486 1.636-1.003l0.005-0.007v-0.476q-0.677 0.799-0.98 0.8c-0.136 0-0.204-0.084-0.204-0.25 0.048-0.304 0.133-0.577 0.252-0.831l-0.008 0.019c0.178-0.382 0.304-0.825 0.355-1.291l0.002-0.019c0-0.006 0-0.013 0-0.020 0-0.145-0.053-0.277-0.141-0.379l0.001 0.001c-0.083-0.097-0.206-0.159-0.343-0.159-0.003 0-0.007 0-0.010 0h0c-0.273 0.022-0.517 0.129-0.71 0.293l0.002-0.002c-0.397 0.321-0.75 0.665-1.069 1.039l-0.009 0.011c0.124-0.53 0.268-0.98 0.442-1.415l-0.023 0.065-1.011 0.195c-0.184 0.376-0.354 0.822-0.485 1.285l-0.014 0.058c-0.044 0.163-0.084 0.366-0.112 0.573l-0.003 0.027q-0.293 0.295-0.612 0.562c-0.078 0.061-0.178 0.099-0.286 0.1h-0c-0.003 0-0.007 0-0.010 0-0.084 0-0.159-0.040-0.207-0.102l-0-0.001c-0.050-0.071-0.081-0.159-0.081-0.254 0-0.008 0-0.017 0.001-0.025l-0 0.001c0.004-0.154 0.029-0.301 0.073-0.44l-0.003 0.011c0.047-0.162 0.15-0.466 0.311-0.913l0.385-1.061zM20.5 7.915c-2.774 0.136-5.245 1.335-7.032 3.196l-0.003 0.003c-3.661 3.661-2.603 10.659-1.36 11.903 1.006 1.005 8.241 2.303 11.904-1.36q0.383-0.385 0.73-0.804c0.118-0.526 0.33-0.989 0.619-1.394l-0.008 0.012c-0.194 0.101-0.42 0.178-0.657 0.218l-0.014 0.002c-0.24 0.408-0.52 0.759-0.843 1.067l-0.002 0.002c-0.29 0.288-0.6 0.557-0.927 0.803l-0.023 0.016c-0.152 0.112-0.34 0.182-0.544 0.19l-0.002 0q-0.656 0-0.617-1.155c-0.221 0.333-0.473 0.621-0.76 0.87l-0.005 0.004c-0.193 0.168-0.445 0.273-0.721 0.28l-0.001 0c-0.259-0.003-0.485-0.137-0.618-0.338l-0.002-0.003c-0.13-0.177-0.217-0.393-0.241-0.628l-0-0.005c-0.267 0.271-0.565 0.512-0.887 0.716l-0.020 0.012c-0.259 0.155-0.571 0.246-0.905 0.246-0.007 0-0.014-0-0.021-0h0.001c-0.015 0.001-0.032 0.001-0.050 0.001-0.336 0-0.64-0.138-0.858-0.361l-0-0c-0.166-0.174-0.281-0.399-0.32-0.648l-0.001-0.007v0.005c-0.292 0.28-0.615 0.532-0.962 0.749l-0.025 0.015c-0.23 0.146-0.509 0.237-0.809 0.246l-0.002 0c-0.007 0-0.015 0-0.023 0-0.281 0-0.531-0.134-0.689-0.342l-0.002-0.002c-0.171-0.235-0.274-0.53-0.274-0.848 0-0.026 0.001-0.053 0.002-0.079l-0 0.004c0.025-0.754 0.161-1.468 0.393-2.138l-0.015 0.051c0.266-0.868 0.577-1.611 0.95-2.317l-0.034 0.072 1.052-0.39c0.022-0.009 0.048-0.014 0.074-0.016l0.001-0c0.079 0 0.145 0.059 0.196 0.175 0.049 0.128 0.077 0.276 0.077 0.43 0 0.016-0 0.031-0.001 0.047l0-0.002c-0.001 0.597-0.145 1.16-0.4 1.658l0.010-0.021c-0.342 0.646-0.747 1.202-1.219 1.692l0.002-0.002q-0.034 0.431-0.034 0.592c-0.001 0.016-0.001 0.034-0.001 0.052 0 0.191 0.050 0.37 0.137 0.525l-0.003-0.005c0.069 0.126 0.201 0.211 0.352 0.211h0c0.18-0.007 0.344-0.067 0.48-0.164l-0.003 0.002c0.279-0.203 0.525-0.418 0.751-0.652l0.002-0.002c0.040-0.552 0.261-1.046 0.604-1.429l-0.002 0.002c0.312-0.417 0.797-0.69 1.346-0.711l0.003-0c0.013-0.001 0.029-0.001 0.044-0.001 0.218 0 0.417 0.076 0.575 0.202l-0.002-0.001c0.143 0.121 0.233 0.3 0.233 0.501 0 0.007-0 0.014-0 0.021l0-0.001q0 0.859-1.823 1.392c0.11 0.537 0.4 0.807 0.866 0.807 0.193-0 0.373-0.055 0.525-0.149l-0.004 0.003c0.269-0.187 0.505-0.392 0.716-0.618l0.002-0.003c0.046-0.342 0.16-0.649 0.329-0.919l-0.006 0.010c0.224-0.37 0.518-0.675 0.866-0.906l0.010-0.007c0.262-0.195 0.587-0.322 0.939-0.347l0.006-0c0.012-0.001 0.025-0.001 0.038-0.001 0.313 0 0.58 0.196 0.685 0.472l0.002 0.005 0.846-0.467h0.232l-0.365 1.213c-0.136 0.366-0.235 0.791-0.281 1.232l-0.002 0.023c0 0.237 0.084 0.356 0.252 0.356 0.141-0.013 0.265-0.076 0.356-0.171l0-0q0.195-0.172 0.546-0.525v0.001c0.171-0.185 0.332-0.387 0.478-0.599l0.012-0.018c-0.203-0.064-0.35-0.249-0.356-0.468l-0-0.001c0.010-0.255 0.090-0.489 0.221-0.686l-0.003 0.005c0.113-0.217 0.336-0.362 0.593-0.362 0.002 0 0.004 0 0.006 0h-0c0.011-0.002 0.024-0.002 0.037-0.002 0.159 0 0.289 0.129 0.289 0.289 0 0.016-0.001 0.031-0.004 0.046l0-0.002c-0.022 0.274-0.088 0.527-0.192 0.759l0.006-0.015q0.688-0.075 1.201-1.052l0.285-0.012c0.529-1.001 0.839-2.189 0.839-3.448 0-1.907-0.711-3.648-1.883-4.972l0.007 0.008c-1.18-1.142-2.789-1.845-4.563-1.845-0.107 0-0.213 0.003-0.319 0.008l0.015-0.001z"/>

<g filter="url(#filter8_b_415_11747)">
<rect x="282.627" y="440.791" width="78.7797" height="78.7797" rx="14.0678" fill="white" fill-opacity="0.1"/>
<rect x="282.158" y="440.322" width="79.7175" height="79.7175" rx="14.5367" stroke="white" stroke-opacity="0.2" stroke-width="0.937853"/>
</g>
<g clip-path="url(#clip2_415_11747)">
<path d="M322.093 453.657C307.025 453.657 294.818 465.874 294.818 480.932C294.818 492.989 302.633 503.208 313.462 506.814C314.831 507.071 315.326 506.227 315.326 505.498C315.326 504.85 315.31 503.137 315.3 500.863C307.709 502.506 306.11 497.196 306.11 497.196C304.867 494.052 303.074 493.209 303.074 493.209C300.606 491.523 303.27 491.559 303.27 491.559C306.004 491.744 307.443 494.363 307.443 494.363C309.876 498.536 313.825 497.329 315.389 496.627C315.627 494.869 316.338 493.66 317.112 492.987C311.057 492.303 304.69 489.96 304.69 479.508C304.69 476.523 305.747 474.093 307.494 472.183C307.193 471.5 306.269 468.721 307.735 464.964C307.735 464.964 310.017 464.236 315.235 467.761C317.419 467.156 319.737 466.855 322.054 466.839C324.372 466.855 326.689 467.158 328.872 467.761C334.06 464.236 336.341 464.964 336.341 464.964C337.805 468.721 336.881 471.498 336.615 472.183C338.345 474.093 339.402 476.525 339.402 479.508C339.402 489.983 333.027 492.293 326.965 492.96C327.913 493.776 328.801 495.455 328.801 498.004C328.801 501.652 328.767 504.591 328.767 505.479C328.767 506.188 329.244 507.04 330.649 506.766C341.559 503.198 349.364 492.97 349.364 480.93C349.364 465.873 337.157 453.655 322.09 453.655L322.093 453.657Z" fill="white"/>
</g>
<g filter="url(#filter9_b_415_11747)">
<rect x="129.756" y="416.407" width="78.7797" height="78.7797" rx="14.0678" fill="white" fill-opacity="0.1"/>
<rect x="129.287" y="415.938" width="79.7175" height="79.7175" rx="14.5367" stroke="white" stroke-opacity="0.2" stroke-width="0.937853"/>
</g>
<path fill="white" transform="translate(145.1,431.6) scale(1.53125)" d="M8.562 15.256A21.159 21.159 0 0 0 16 16.449a21.159 21.159 0 0 0 7.438-1.194c1.864-.727 2.525-1.535 2.525-2V9.7a10.357 10.357 0 0 1-2.084 1.076A22.293 22.293 0 0 1 16 12.078a22.36 22.36 0 0 1-7.879-1.3A10.28 10.28 0 0 1 6.037 9.7v3.55c0 .474.663 1.278 2.525 2.006Z"/>
<path fill="white" transform="translate(145.1,431.6) scale(1.53125)" d="M8.562 21.961a15.611 15.611 0 0 0 2.6.741A24.9 24.9 0 0 0 16 23.155a24.9 24.9 0 0 0 4.838-.452 15.614 15.614 0 0 0 2.6-.741c1.864-.727 2.525-1.535 2.525-2v-3.39a10.706 10.706 0 0 1-1.692.825A23.49 23.49 0 0 1 16 18.74a23.49 23.49 0 0 1-8.271-1.348 10.829 10.829 0 0 1-1.692-.825V19.96c0 .466.663 1.271 2.525 2.001Z"/>
<path fill="white" transform="translate(145.1,431.6) scale(1.53125)" d="M16 30c5.5 0 9.963-1.744 9.963-3.894V23.269a10.5 10.5 0 0 1-1.535.762l-.157.063A23.487 23.487 0 0 1 16 25.445a23.422 23.422 0 0 1-8.271-1.351c-.054-.02-.106-.043-.157-.063a10.5 10.5 0 0 1-1.535-.762v2.837C6.037 28.256 10.5 30 16 30Z"/>
<ellipse fill="white" transform="translate(145.1,431.6) scale(1.53125)" cx="16" cy="5.894" rx="9.963" ry="3.894"/>

<g filter="url(#filter10_b_415_11747)">
<rect x="104.435" y="254.158" width="78.7797" height="78.7797" rx="14.0678" fill="white" fill-opacity="0.1"/>
<rect x="103.966" y="253.689" width="79.7175" height="79.7175" rx="14.5367" stroke="white" stroke-opacity="0.2" stroke-width="0.937853"/>
</g>
<!-- substitui o path antigo -->
<g transform="translate(126.4,261.3) scale(0.)">
<g transform="translate(119.4,261.3) scale(0.2)">
  <path fill="white" d="M96.8988295,111.577478 C73.5242954,98.0821845 62.1282337,70.5696577 69.1139117,44.4987526 C76.0995896,18.4278475 99.725132,0.299331211 126.715719,0.299331211 C153.706306,0.299331211 177.331848,18.4278475 184.317526,44.4987526 C191.303204,70.5696577 179.907143,98.0821845 156.532609,111.577478 L138.577759,80.4787667 C147.87684,75.1099399 152.41053,64.1646434 149.631421,53.7928665 C146.852312,43.4210897 137.453373,36.20903 126.715719,36.20903 C115.978066,36.20903 106.579126,43.4210897 103.800017,53.7928665 C101.020908,64.1646434 105.554598,75.1099399 114.853679,80.4787667 L96.8988295,111.577478 Z"></path>
  <path fill="white" d="M164.965719,237.292642 C141.591185,223.797348 130.195123,196.284822 137.180801,170.213917 C144.166479,144.143011 167.792022,126.014495 194.782609,126.014495 C221.773196,126.014495 245.398738,144.143011 252.384416,170.213917 C259.370094,196.284822 247.974032,223.797348 224.599498,237.292642 L206.644649,206.193931 C215.94373,200.825104 220.47742,189.879807 217.698311,179.508031 C214.919201,169.136254 205.520262,161.924194 194.782609,161.924194 C184.044955,161.924194 174.646016,169.136254 171.866907,179.508031 C169.087798,189.879807 173.621488,200.825104 182.920569,206.193931 L164.965719,237.292642 Z" transform="translate(194.782609, 181.653569) rotate(180.000000) translate(-194.782609, -181.653569) "></path>
  <path fill="white" d="M119.56689,177.658863 C119.56689,204.64945 101.438373,228.274992 75.3674681,235.26067 C49.296563,242.246348 21.7840362,230.850287 8.28874269,207.475752 C-5.20655084,184.101218 -1.31956641,154.57664 17.7656607,135.491413 C36.8508879,116.406186 66.3754659,112.519202 89.7499999,126.014495 L71.7951506,157.113207 C62.4960699,151.74438 50.7503199,153.290737 43.1576523,160.883405 C35.5649847,168.476072 34.0186273,180.221822 39.3874541,189.520903 C44.7562808,198.819984 55.7015774,203.353674 66.0733542,200.574565 C76.445131,197.795456 83.6571907,188.396516 83.6571907,177.658863 L119.56689,177.658863 Z"></path>
  <path fill="white" d="M17.3292308,251.590635 C22.3764548,251.136856 27.4793311,251.141137 32.5008696,251.860334 C35.5959866,252.408294 38.8794649,253.208829 41.2040134,255.464883 C43.6398662,258.183278 44.2391973,261.959064 44.7743144,265.439465 C45.6519064,272.661405 45.5491639,279.986087 44.7743144,287.212308 C44.2563211,290.739799 43.7468896,294.549833 41.4351839,297.41806 C38.9137124,299.97806 35.1892977,300.705819 31.7731104,301.245217 C26.7301672,301.874515 21.6144482,302.020067 16.5501003,301.514916 C13.1210702,301.16388 9.54220736,300.560268 6.6226087,298.60388 C4.73471572,297.405217 3.72013378,295.290435 3.03090301,293.239866 C1.64816054,288.967492 1.47264214,284.429699 1.28428094,279.977525 C1.26287625,274.095518 1.3741806,268.153579 2.52147157,262.365753 C3.14220736,259.664482 3.89565217,256.693512 6.1773913,254.891237 C9.39237458,252.558127 13.4806689,251.993043 17.3292308,251.590635 Z M18.1640134,259.651639 C16.0406689,259.972709 13.3950502,260.148227 12.1150502,262.12602 C10.9977258,265.075585 11.0362542,268.294849 10.8093645,271.398528 C10.7023411,276.933779 10.4240803,282.520401 11.2802676,288.012843 C11.5970569,289.866488 12.2477592,292.075452 14.3068896,292.61913 C18.7719064,293.984749 23.5494314,293.753579 28.1514381,293.492441 C30.4460201,293.141405 33.4897659,292.944482 34.6070903,290.542876 C35.8870903,286.886957 35.7971906,282.939933 35.9555853,279.121338 C35.904214,273.753043 36.2038796,268.282007 34.9195987,263.029298 C34.6113712,261.162809 32.676388,260.366555 31.0367893,260.036923 C26.8072241,259.206421 22.4406689,259.309164 18.1640134,259.651639 Z M63.259398,268.320535 C66.3245485,266.372709 70.130301,266.05592 73.6663545,266.37699 C76.9669565,266.659532 80.6314381,267.781137 82.3994649,270.820602 C84.5099666,274.634916 84.6298328,279.142742 84.7753846,283.397993 C84.681204,287.77311 84.5998662,292.34087 82.793311,296.407759 C81.7616054,298.87786 79.3899666,300.496054 76.8513712,301.133913 C72.9642809,302.088562 68.6919064,302.191304 64.946087,300.641605 C62.921204,299.849632 61.5213378,298.128696 60.361204,296.36495 L60.361204,316.361204 L51.7993311,316.361204 C51.803612,299.811104 51.7907692,283.256722 51.803612,266.706622 C54.5733779,266.693779 57.3431438,266.693779 60.1086288,266.706622 C60.0144482,268.410435 59.9202676,270.109967 59.8731773,271.81806 C60.900602,270.563746 61.8552508,269.185284 63.259398,268.320535 Z M66.0462876,272.789833 C64.0085619,272.948227 61.7910368,273.958528 61.2131104,276.090435 C60.1214716,279.849097 60.3141137,283.830368 60.4725084,287.700334 C60.7379264,290.221806 61.0504348,293.471037 63.7345819,294.601204 C66.6199331,295.718528 69.9505017,295.658595 72.8701003,294.703946 C75.3958528,293.813512 75.7640134,290.842542 76.0294314,288.54796 C76.2948495,284.746488 76.3890301,280.86796 75.6441472,277.113579 C75.3915719,275.65806 74.642408,274.155452 73.2211371,273.543278 C70.9779264,272.554381 68.443612,272.605753 66.0462876,272.789833 Z M95.0196656,268.384749 C99.2278261,266.222876 104.155184,266.145819 108.774314,266.364147 C112.618595,266.685217 117.284816,267.327358 119.40388,271.004682 C121.792642,275.444013 121.403077,280.666756 121.73699,285.538462 L98.3159866,285.538462 C98.5899666,288.051371 98.2646154,290.761204 99.5317726,293.064348 C100.614849,294.883746 102.913712,295.256187 104.857258,295.363211 C107.258863,295.380334 109.844548,295.577258 112.057793,294.459933 C113.32495,293.466756 113.333512,291.70301 113.496187,290.247492 C116.235987,290.243211 118.975786,290.243211 121.715585,290.247492 C121.612843,293.107157 121.244682,296.309298 118.9501,298.321338 C115.503946,301.412174 110.572308,301.733244 106.162943,301.818863 C102.271572,301.703278 98.1618729,301.506355 94.6771906,299.588495 C91.8560535,297.923211 90.9570569,294.502742 90.4604682,291.488963 C89.8311706,287.011104 89.6727759,282.447625 90.207893,277.952642 C90.6445485,274.403746 91.5991973,270.229833 95.0196656,268.384749 Z M100.02408,273.834381 C98.2346488,275.465418 98.4101672,278.17097 98.3331104,280.388495 C103.367492,280.414181 108.401873,280.401338 113.440535,280.392776 C113.431973,278.39786 113.624615,276.223144 112.545819,274.446555 C111.488428,273.008161 109.506355,272.91398 107.879599,272.738462 C105.255385,272.699933 102.361472,272.41311 100.02408,273.834381 Z M139.969498,268.363344 C142.931906,266.308495 146.759064,266.021672 150.243746,266.42408 C153.210435,266.736589 156.352642,267.866756 158.103545,270.426756 C159.657525,272.5501 160.0899,275.255652 160.111304,277.828495 C160.098462,285.679732 160.115585,293.526689 160.107023,301.377926 C157.39291,301.382207 154.683077,301.382207 151.977525,301.377926 C151.964682,293.950502 151.986087,286.527358 151.964682,279.104214 C151.883344,277.481739 151.947559,275.606689 150.727492,274.356656 C149.426087,272.948227 147.38408,272.674247 145.564682,272.68709 C143.364281,272.674247 140.98408,273.05097 139.288829,274.570702 C137.632107,275.983411 137.002809,278.26087 136.994247,280.36709 C136.981405,287.370702 136.998528,294.374314 136.985686,301.373645 C134.275853,301.382207 131.56602,301.382207 128.860468,301.377926 C128.856187,289.819398 128.856187,278.26087 128.860468,266.702341 C131.523211,266.693779 134.190234,266.69806 136.852977,266.702341 C136.840134,268.731505 136.63893,270.747826 136.578997,272.77699 C137.452308,271.137391 138.368428,269.407893 139.969498,268.363344 Z M174.829164,253.174582 C179.315585,251.667692 184.097391,251.453645 188.789298,251.286689 C193.335652,251.308094 198.087492,251.350903 202.334181,253.183144 C204.491773,254.08214 205.985819,256.051371 206.713579,258.226087 C207.899398,261.475318 207.933645,264.994247 207.959331,268.414716 C204.829967,268.414716 201.700602,268.423278 198.575518,268.410435 C198.524147,266.004548 198.708227,263.307559 197.218462,261.261271 C195.711572,259.720134 193.357057,259.724415 191.35786,259.488963 C187.29097,259.411906 183.057124,259.150769 179.161472,260.554916 C177.757324,261.000134 177.029565,262.404281 176.747023,263.757057 C175.946488,267.387291 175.942207,271.13311 175.946488,274.83612 C175.993579,279.784883 175.916522,284.806421 176.973913,289.673846 C177.252174,291.454716 178.891773,292.550635 180.535652,292.944482 C184.337124,293.890569 188.305552,293.753579 192.188361,293.522408 C194.213244,293.25699 196.679064,293.124281 197.950502,291.266355 C199.307559,289.048829 199.080669,286.321873 199.007893,283.830368 C202.167224,283.817525 205.322274,283.821806 208.481605,283.830368 C208.443077,287.764548 208.374582,291.827157 206.944749,295.551572 C206.208428,297.499398 204.688696,299.151839 202.719465,299.896722 C198.853779,301.446421 194.615652,301.544883 190.514515,301.793177 C185.758395,301.874515 180.942341,301.75893 176.293244,300.650167 C173.566288,299.939532 170.586756,298.689498 169.32388,295.979666 C167.709967,292.396522 167.414582,288.41097 166.999331,284.553846 C166.652575,279.459532 166.429967,274.356656 166.554114,269.253779 C166.798127,265.122676 167.174849,260.768963 169.405217,257.168696 C170.591037,255.165217 172.671572,253.910903 174.829164,253.174582 Z M210.022742,251.731906 C213.284816,251.736187 216.54689,251.642007 219.804682,251.778997 C222.976856,261.843478 226.461538,271.805217 229.663679,281.856856 C230.909431,285.718261 231.791304,289.69097 233.079866,293.539532 C234.522542,289.387023 235.447224,285.071839 236.859933,280.910769 C239.989298,271.188763 243.204281,261.496722 246.329365,251.774716 C249.548629,251.637726 252.776455,251.757592 256,251.714783 L256,252.780736 C250.700201,268.932709 245.524548,285.127492 240.331773,301.317993 C235.485753,301.416455 230.631171,301.429298 225.785151,301.309431 C220.622341,284.75505 215.211237,268.277726 210.022742,251.731906 Z"></path>
</g>

</g>

<g filter="url(#filter11_b_415_11747)">
<rect x="322.955" y="559.898" width="78.7797" height="78.7797" rx="14.0678" fill="white" fill-opacity="0.1"/>
<rect x="322.486" y="559.43" width="79.7175" height="79.7175" rx="14.5367" stroke="white" stroke-opacity="0.2" stroke-width="0.937853"/>
</g>
<path
  fill="white"
  transform="translate(335.09,572.892) scale(1.640875)"
  d="M25.94 25.061l-5.382-9.060 5.382-9.064 2.598 9.062-2.599 9.060zM13.946 24.191l-6.768-6.717h10.759l5.38 9.061-9.372-2.342zM13.946 7.809l9.371-2.342-5.379 9.061h-10.761zM30.996 12.917l-3.282-11.913-12.251 3.193-1.812 3.112-3.68-0.027-8.966 8.719 8.967 8.72 3.678-0.029 1.817 3.112 12.246 3.192 3.283-11.908-1.864-3.087z"
/>

</g>
<defs>
<filter id="filter0_b_415_11747" x="50.0398" y="537.389" width="144.429" height="144.429" filterUnits="userSpaceOnUse" color-interpolation-filters="sRGB">
<feFlood flood-opacity="0" result="BackgroundImageFix"/>
<feGaussianBlur in="BackgroundImageFix" stdDeviation="15.9435"/>
<feComposite in2="SourceAlpha" operator="in" result="effect1_backgroundBlur_415_11747"/>
<feBlend mode="normal" in="SourceGraphic" in2="effect1_backgroundBlur_415_11747" result="shape"/>
</filter>
<filter id="filter1_b_415_11747" x="262.587" y="33.4182" width="143.491" height="143.492" filterUnits="userSpaceOnUse" color-interpolation-filters="sRGB">
<feFlood flood-opacity="0" result="BackgroundImageFix"/>
<feGaussianBlur in="BackgroundImageFix" stdDeviation="15.9435"/>
<feComposite in2="SourceAlpha" operator="in" result="effect1_backgroundBlur_415_11747"/>
<feBlend mode="normal" in="SourceGraphic" in2="effect1_backgroundBlur_415_11747" result="shape"/>
</filter>
<filter id="filter2_b_415_11747" x="98.2136" y="-7.15849" width="144.429" height="144.429" filterUnits="userSpaceOnUse" color-interpolation-filters="sRGB">
<feFlood flood-opacity="0" result="BackgroundImageFix"/>
<feGaussianBlur in="BackgroundImageFix" stdDeviation="15.9435"/>
<feComposite in2="SourceAlpha" operator="in" result="effect1_backgroundBlur_415_11747"/>
<feBlend mode="normal" in="SourceGraphic" in2="effect1_backgroundBlur_415_11747" result="shape"/>
</filter>
<filter id="filter3_b_415_11747" x="155.816" y="52.4409" width="29.0839" height="25.3818" filterUnits="userSpaceOnUse" color-interpolation-filters="sRGB">
<feFlood flood-opacity="0" result="BackgroundImageFix"/>
<feGaussianBlur in="BackgroundImageFix" stdDeviation="1.56517"/>
<feComposite in2="SourceAlpha" operator="in" result="effect1_backgroundBlur_415_11747"/>
<feBlend mode="normal" in="SourceGraphic" in2="effect1_backgroundBlur_415_11747" result="shape"/>
</filter>
<filter id="filter4_b_415_11747" x="382.2" y="300.273" width="145.005" height="145.006" filterUnits="userSpaceOnUse" color-interpolation-filters="sRGB">
<feFlood flood-opacity="0" result="BackgroundImageFix"/>
<feGaussianBlur in="BackgroundImageFix" stdDeviation="15.9435"/>
<feComposite in2="SourceAlpha" operator="in" result="effect1_backgroundBlur_415_11747"/>
<feBlend mode="normal" in="SourceGraphic" in2="effect1_backgroundBlur_415_11747" result="shape"/>
</filter>
<filter id="filter5_b_415_11747" x="177.588" y="133.175" width="144.429" height="144.429" filterUnits="userSpaceOnUse" color-interpolation-filters="sRGB">
<feFlood flood-opacity="0" result="BackgroundImageFix"/>
<feGaussianBlur in="BackgroundImageFix" stdDeviation="15.9435"/>
<feComposite in2="SourceAlpha" operator="in" result="effect1_backgroundBlur_415_11747"/>
<feBlend mode="normal" in="SourceGraphic" in2="effect1_backgroundBlur_415_11747" result="shape"/>
</filter>
<filter id="filter6_b_415_11747" x="327.796" y="183.97" width="144.429" height="144.429" filterUnits="userSpaceOnUse" color-interpolation-filters="sRGB">
<feFlood flood-opacity="0" result="BackgroundImageFix"/>
<feGaussianBlur in="BackgroundImageFix" stdDeviation="15.9435"/>
<feComposite in2="SourceAlpha" operator="in" result="effect1_backgroundBlur_415_11747"/>
<feBlend mode="normal" in="SourceGraphic" in2="effect1_backgroundBlur_415_11747" result="shape"/>
</filter>
<filter id="filter7_b_415_11747" x="219.791" y="271.039" width="143.491" height="143.492" filterUnits="userSpaceOnUse" color-interpolation-filters="sRGB">
<feFlood flood-opacity="0" result="BackgroundImageFix"/>
<feGaussianBlur in="BackgroundImageFix" stdDeviation="15.9435"/>
<feComposite in2="SourceAlpha" operator="in" result="effect1_backgroundBlur_415_11747"/>
<feBlend mode="normal" in="SourceGraphic" in2="effect1_backgroundBlur_415_11747" result="shape"/>
</filter>
<filter id="filter8_b_415_11747" x="249.802" y="407.966" width="144.429" height="144.429" filterUnits="userSpaceOnUse" color-interpolation-filters="sRGB">
<feFlood flood-opacity="0" result="BackgroundImageFix"/>
<feGaussianBlur in="BackgroundImageFix" stdDeviation="15.9435"/>
<feComposite in2="SourceAlpha" operator="in" result="effect1_backgroundBlur_415_11747"/>
<feBlend mode="normal" in="SourceGraphic" in2="effect1_backgroundBlur_415_11747" result="shape"/>
</filter>
<filter id="filter9_b_415_11747" x="96.9314" y="383.582" width="144.429" height="144.429" filterUnits="userSpaceOnUse" color-interpolation-filters="sRGB">
<feFlood flood-opacity="0" result="BackgroundImageFix"/>
<feGaussianBlur in="BackgroundImageFix" stdDeviation="15.9435"/>
<feComposite in2="SourceAlpha" operator="in" result="effect1_backgroundBlur_415_11747"/>
<feBlend mode="normal" in="SourceGraphic" in2="effect1_backgroundBlur_415_11747" result="shape"/>
</filter>
<filter id="filter10_b_415_11747" x="71.6101" y="221.333" width="144.429" height="144.429" filterUnits="userSpaceOnUse" color-interpolation-filters="sRGB">
<feFlood flood-opacity="0" result="BackgroundImageFix"/>
<feGaussianBlur in="BackgroundImageFix" stdDeviation="15.9435"/>
<feComposite in2="SourceAlpha" operator="in" result="effect1_backgroundBlur_415_11747"/>
<feBlend mode="normal" in="SourceGraphic" in2="effect1_backgroundBlur_415_11747" result="shape"/>
</filter>
<filter id="filter11_b_415_11747" x="290.131" y="527.073" width="144.429" height="144.429" filterUnits="userSpaceOnUse" color-interpolation-filters="sRGB">
<feFlood flood-opacity="0" result="BackgroundImageFix"/>
<feGaussianBlur in="BackgroundImageFix" stdDeviation="15.9435"/>
<feComposite in2="SourceAlpha" operator="in" result="effect1_backgroundBlur_415_11747"/>
<feBlend mode="normal" in="SourceGraphic" in2="effect1_backgroundBlur_415_11747" result="shape"/>
</filter>
<radialGradient id="paint0_radial_415_11747" cx="0" cy="0" r="1" gradientUnits="userSpaceOnUse" gradientTransform="translate(332 332.938) rotate(90) scale(349.759)">
<stop stop-color="white"/>
<stop offset="1" stop-color="white" stop-opacity="0"/>
</radialGradient>
<linearGradient id="paint1_linear_415_11747" x1="141.949" y1="-81.5932" x2="363.282" y2="699.638" gradientUnits="userSpaceOnUse">
<stop offset="0.416946"/>
<stop offset="0.880782" stop-opacity="0.02"/>
</linearGradient>
<linearGradient id="paint2_linear_415_11747" x1="144.529" y1="440.397" x2="169.558" y2="474.388" gradientUnits="userSpaceOnUse">
<stop stop-color="white" stop-opacity="0"/>
<stop offset="1" stop-color="white"/>
</linearGradient>
<linearGradient id="paint3_linear_415_11747" x1="171.81" y1="432.516" x2="176.958" y2="467.836" gradientUnits="userSpaceOnUse">
<stop offset="0.0001" stop-color="white"/>
</linearGradient>
<clipPath id="clip0_415_11747">
<rect width="54.3955" height="54.3955" fill="white" transform="translate(95.0557 582.407)"/>
</clipPath>
<clipPath id="clip1_415_11747">
<rect width="60.0226" height="60.0226" fill="white" transform="translate(370.055 226.116) rotate(0.109914)"/>
</clipPath>
<clipPath id="clip2_415_11747">
<rect width="54.5493" height="54.5493" fill="white" transform="translate(294.818 452.982)"/>
</clipPath>
</defs>
</svg>
